<svg width="900" height="520" viewBox="0 0 900 520" fill="none" xmlns="http://www.w3.org/2000/svg">
  <rect width="900" height="520" rx="24" fill="#070A12"/>
  <rect x="48" y="52" width="804" height="416" rx="18" fill="#0F1728" stroke="#24314A"/>
  <rect x="88" y="92" width="240" height="20" rx="10" fill="#2E5EB8"/>
  <rect x="88" y="130" width="180" height="12" rx="6" fill="#2A3F73"/>
  <rect x="88" y="150" width="160" height="12" rx="6" fill="#2A3F73"/>
  <rect x="88" y="180" width="764" height="1" fill="#20304A"/>
  <rect x="88" y="208" width="356" height="220" rx="12" fill="#111C2E" stroke="#2D4060"/>
  <rect x="112" y="236" width="96" height="10" rx="5" fill="#3E72DF"/>
  <rect x="112" y="262" width="292" height="8" rx="4" fill="#2A3F73"/>
  <rect x="112" y="278" width="252" height="8" rx="4" fill="#2A3F73"/>
  <rect x="484" y="208" width="336" height="220" rx="12" fill="#111C2E" stroke="#2D4060"/>
  <rect x="520" y="362" width="40" height="40" rx="8" fill="#2E5EB8"/>
  <rect x="572" y="338" width="40" height="64" rx="8" fill="#3A72E6"/>
  <rect x="624" y="310" width="40" height="92" rx="8" fill="#4F93FF"/>
  <rect x="676" y="330" width="40" height="72" rx="8" fill="#3BD8AF"/>
  <rect x="728" y="286" width="40" height="116" rx="8" fill="#56E9C2"/>
</svg>
