<svg width="900" height="520" viewBox="0 0 900 520" fill="none" xmlns="http://www.w3.org/2000/svg">
  <rect x="20" y="20" width="860" height="480" rx="24" fill="#101c35" stroke="#2a4d8f"/>
  <rect x="60" y="70" width="360" height="380" rx="18" fill="#172746"/>
  <rect x="90" y="110" width="300" height="18" rx="9" fill="#315da3"/>
  <rect x="90" y="150" width="240" height="14" rx="7" fill="#274d89"/>
  <rect x="90" y="176" width="210" height="14" rx="7" fill="#274d89"/>
  <rect x="90" y="202" width="180" height="14" rx="7" fill="#274d89"/>
  <rect x="90" y="248" width="300" height="150" rx="12" fill="#0f1d36" stroke="#355f9f"/>
  <rect x="470" y="70" width="370" height="180" rx="18" fill="#172746"/>
  <rect x="500" y="110" width="120" height="18" rx="9" fill="#315da3"/>
  <rect x="500" y="146" width="310" height="10" rx="5" fill="#2a4d8b"/>
  <rect x="500" y="166" width="260" height="10" rx="5" fill="#2a4d8b"/>
  <rect x="470" y="280" width="370" height="170" rx="18" fill="#172746"/>
  <rect x="510" y="360" width="42" height="60" rx="8" fill="#3f79d2"/>
  <rect x="568" y="330" width="42" height="90" rx="8" fill="#4d91f4"/>
  <rect x="626" y="304" width="42" height="116" rx="8" fill="#37b8ff"/>
  <rect x="684" y="322" width="42" height="98" rx="8" fill="#6ec8ff"/>
  <rect x="742" y="290" width="42" height="130" rx="8" fill="#84d7ff"/>
</svg>
